<svg width="103" height="60" viewBox="0 0 103 60" fill="none" xmlns="http://www.w3.org/2000/svg">
<path d="M24.2941 31H30.8824L34.1765 38.9412L30.0588 41.3235C31.8228 44.7724 34.7175 47.5638 38.2941 49.2647L40.7647 45.2941L49 48.4706V54.8235C49 55.666 48.6529 56.4739 48.0352 57.0696C47.4174 57.6653 46.5795 58 45.7059 58C39.2811 57.6235 33.2214 54.9927 28.6701 50.6039C24.1187 46.2151 21.3904 40.3718 21 34.1765C21 33.334 21.3471 32.5261 21.9648 31.9304C22.5826 31.3347 23.4205 31 24.2941 31Z" fill="#F7FCF9"/>
<path fill-rule="evenodd" clip-rule="evenodd" d="M43.7452 28.0351L40.7222 37.0556L51.6514 34.7426C56.1026 36.892 61.2852 37.5392 66.2355 36.5637C71.1859 35.5883 75.5671 33.0566 78.5647 29.4394C81.5623 25.8222 82.9721 21.3657 82.5322 16.8984C82.0923 12.4311 79.8324 8.25706 76.1729 5.15235C72.5133 2.04765 67.7031 0.223562 62.6365 0.0192327C57.57 -0.185097 52.5919 1.24424 48.6279 4.04149C44.6638 6.83874 41.9836 10.8135 41.0855 15.2269C40.1874 19.6402 41.1325 24.1917 43.7452 28.0351ZM61.551 24.1667L55.9699 14.5L50.3889 24.1667H61.551ZM61.6667 14.5L67.2477 24.1667L72.8288 14.5L61.6667 14.5Z" fill="#F7FCF9"/>
</svg>
